<svg xmlns="http://www.w3.org/2000/svg" width="16.999" height="12"><path d="M1.308 12A1.323 1.323 0 0 1 0 10.668V1.542a.08.08 0 0 1 .139-.058l4.4 4.56a.09.09 0 0 1 0 .117L1.463 9.5a.547.547 0 0 0 0 .765.531.531 0 0 0 .376.158.531.531 0 0 0 .376-.158L5.28 6.94a.083.083 0 0 1 .119 0l.719.745a3.325 3.325 0 0 0 2.395 1.036 3.262 3.262 0 0 0 2.345-1.007l.748-.774a.083.083 0 0 1 .119 0l3.064 3.325a.529.529 0 0 0 .376.158.527.527 0 0 0 .375-.158.545.545 0 0 0 0-.765l-3.077-3.337a.083.083 0 0 1 0-.117l4.4-4.56a.081.081 0 0 1 .139.058v9.126a1.323 1.323 0 0 1-1.31 1.33Zm5.6-4.987L.508.294A1.254 1.254 0 0 1 1.316 0h14.37a1.264 1.264 0 0 1 .808.294l-6.4 6.719a2.185 2.185 0 0 1-1.595.689 2.185 2.185 0 0 1-1.59-.689Z" fill="#d51c17"/></svg>