<svg xmlns="http://www.w3.org/2000/svg" width="51" height="40" viewBox="0 0 51 40">
  <path id="aspas" d="M25.084,7.412l2.607,4.025c-9.728,5.282-9.559,13.758-9.559,15.584a12.755,12.755,0,0,1,2.8-.053,10.239,10.239,0,0,1-.8,20.445,11.253,11.253,0,0,1-8.013-3.451c-3-3.194-4.619-6.786-4.619-12.606,0-10.237,7.162-19.409,17.584-23.943Zm28.161,0,2.607,4.025c-9.728,5.282-9.559,13.758-9.559,15.584a12.755,12.755,0,0,1,2.8-.053,10.239,10.239,0,0,1-.8,20.445,11.253,11.253,0,0,1-8.013-3.451c-3-3.194-4.619-6.786-4.619-12.606,0-10.237,7.162-19.409,17.584-23.943Z" transform="translate(-7.5 -7.412)" fill="#d51c17"/>
</svg>
