<svg xmlns="http://www.w3.org/2000/svg" width="30" height="30" viewBox="0 0 30 30">
  <g id="compartilhar" transform="translate(0.209)">
    <circle id="box" cx="15" cy="15" r="15" transform="translate(-0.209)" fill="#d51c17"/>
    <path id="compartilhar-2" data-name="compartilhar" d="M14.947,12.806a2.028,2.028,0,0,0-1.365.536l-4.966-2.89a1.927,1.927,0,0,0,0-.975l4.91-2.862a2.085,2.085,0,1,0-.669-1.525,2.28,2.28,0,0,0,.063.488L8.01,8.439a2.089,2.089,0,1,0,0,3.051l4.959,2.9a1.965,1.965,0,0,0-.056.453,2.034,2.034,0,1,0,2.034-2.034Z" transform="translate(3.403 5.063)" fill="#fff" stroke="#fff" stroke-width="0.5"/>
  </g>
</svg>
