<svg xmlns="http://www.w3.org/2000/svg" width="16.999" height="12" viewBox="0 0 16.999 12">
  <path id="email" d="M6.308-1166A1.323,1.323,0,0,1,5-1167.332v-9.126a.08.08,0,0,1,.139-.058l4.4,4.56a.09.09,0,0,1,0,.117L6.463-1168.5a.547.547,0,0,0,0,.765.531.531,0,0,0,.376.158.531.531,0,0,0,.376-.158l3.065-3.325a.083.083,0,0,1,.119,0l.719.745a3.325,3.325,0,0,0,2.395,1.036,3.262,3.262,0,0,0,2.345-1.007l.748-.774a.083.083,0,0,1,.119,0l3.064,3.325a.529.529,0,0,0,.376.158.527.527,0,0,0,.375-.158.545.545,0,0,0,0-.765l-3.077-3.337a.083.083,0,0,1,0-.117l4.4-4.56a.081.081,0,0,1,.139.058v9.126A1.323,1.323,0,0,1,20.692-1166Zm5.6-4.987-6.4-6.719a1.254,1.254,0,0,1,.808-.294h14.37a1.264,1.264,0,0,1,.808.294l-6.4,6.719a2.185,2.185,0,0,1-1.595.689A2.185,2.185,0,0,1,11.909-1170.987Z" transform="translate(-5 1178)" fill="#d51c17"/>
</svg>
