<svg data-name="logo mw" xmlns="http://www.w3.org/2000/svg" width="40.003" height="30"><g data-name="6" fill="#a0a0a0"><path data-name="Caminho 131" d="M.507 24.403a1.842 1.842 0 0 0 .261.161c.507.2 14.186 4.652 16.6 5.435v-5.818s-.069-.046-.1-.061l-7.849-2.626-1.612.53Z"/><path data-name="Caminho 132" d="M.031 5.773H.008L0 5.765l.031.015Z"/><path data-name="Caminho 133" d="m9.419 8.483 7.853-2.6a.338.338 0 0 0 .107-.1V0C14.984.768 1.282 5.243.767 5.435a1.842 1.842 0 0 0-.276.138Z"/><path data-name="Caminho 134" d="M.123 5.711Z"/><path data-name="Caminho 135" d="M.031 5.78v-.007L0 5.765Z"/><path data-name="Caminho 136" d="M.139 11.791s.054.038.092.061l.184.054c2.065.668 5.374 1.766 8.621 2.848 3.4-1.144 6.786-2.3 8.191-3.009a1 1 0 0 0-.5-.33c-.207-.084-2.679-.9-7.346-2.426L.169 5.995a1.627 1.627 0 0 0-.038.361v5.435Z"/><path data-name="Caminho 137" d="M17.38 12.229C14.094 13.764 1.42 17.764.258 18.117l-.123.115v5.773l7.538-2.457c5.6-1.835 8.828-2.894 9.058-2.986a.821.821 0 0 0 .637-.952v-5.289Z"/><path data-name="Caminho 138" d="M39.496 24.403a1.842 1.842 0 0 1-.276.138c-.507.2-14.186 4.652-16.6 5.435v-5.818s.069-.046.1-.061l7.856-2.603 1.612.53Z"/><path data-name="Caminho 139" d="M39.972 5.773h.015l.015-.008h-.008l-.023.015Z"/><path data-name="Caminho 140" d="M30.576 8.483c-2.3-.768-7.615-2.518-7.845-2.6a.338.338 0 0 1-.107-.1V0c2.4.768 16.121 5.243 16.6 5.435a1.843 1.843 0 0 1 .276.138Z"/><path data-name="Caminho 141" d="M39.88 5.711Z"/><path data-name="Caminho 142" d="M39.972 5.78v-.007l.03-.008Z"/><path data-name="Caminho 143" d="M39.857 11.791s-.054.038-.092.061l-.192.054c-2.057.668-5.374 1.766-8.613 2.848-3.4-1.144-6.794-2.3-8.2-3.009a1.059 1.059 0 0 1 .507-.33c.207-.084 2.671-.9 7.346-2.426l9.213-2.994a1.589 1.589 0 0 1 .046.361v4.291c-.008.384-.008.768-.015 1.144Z"/><path data-name="Caminho 144" d="M22.623 12.229c3.278 1.535 15.96 5.535 17.119 5.888l.115.115v5.757l-7.462-2.433c-5.619-1.835-8.843-2.894-9.074-2.986a.821.821 0 0 1-.645-.952v-5.289a.315.315 0 0 1-.054-.1Z"/></g></svg>