<svg id="logo" xmlns="http://www.w3.org/2000/svg" width="145" height="50" viewBox="0 0 145 50">
  <path id="Caminho_1" data-name="Caminho 1" d="M304.931,208.86c-.332,0-.5.266-.5.892s.169.9.5.9.5-.288.5-.9S305.263,208.86,304.931,208.86Z" transform="translate(-237.625 -162.969)" fill="none"/>
  <path id="Caminho_2" data-name="Caminho 2" d="M282.93,209.772c0,.738.141.914.409.914a.659.659,0,0,0,.439-.176V209.1a.659.659,0,0,0-.453-.176C283.071,208.92,282.93,209.08,282.93,209.772Z" transform="translate(-220.843 -163.015)" fill="none"/>
  <path id="Caminho_3" data-name="Caminho 3" d="M248.229,208.86c-.332,0-.5.266-.5.892s.167.9.5.9.5-.288.5-.9S248.552,208.86,248.229,208.86Z" transform="translate(-193.367 -162.969)" fill="none"/>
  <path id="Caminho_4" data-name="Caminho 4" d="M205.5,98.415c.029,1.731.257,3.047,1.07,3.034,1.977-.035,3.68-4.95,3.68-4.95l1.318-8.42a8.482,8.482,0,0,0-2.2-.369C206.529,87.761,205.454,95.973,205.5,98.415Z" transform="translate(-160.402 -68.437)" fill="none"/>
  <path id="Caminho_5" data-name="Caminho 5" d="M359.362,208.44c-.288,0-.439.2-.492.562h1.055C359.863,208.631,359.738,208.44,359.362,208.44Z" transform="translate(-280.118 -162.641)" fill="none"/>
  <path id="Caminho_6" data-name="Caminho 6" d="M428.762,208.44c-.286,0-.45.2-.492.562h1.057C429.263,208.631,429.136,208.44,428.762,208.44Z" transform="translate(-334.289 -162.641)" fill="none"/>
  <path id="Caminho_7" data-name="Caminho 7" d="M502.555,93.165c.029,1.731.253,3.047,1.072,3.032,1.977-.031,3.676-4.948,3.676-4.948l1.318-8.419a8.377,8.377,0,0,0-2.2-.369C503.586,82.511,502.512,90.726,502.555,93.165Z" transform="translate(-392.277 -64.341)" fill="none"/>
  <path id="Caminho_8" data-name="Caminho 8" d="M479.659,208.86c-.332,0-.5.266-.5.892s.167.9.5.9.5-.288.5-.9S479.991,208.86,479.659,208.86Z" transform="translate(-374.011 -162.969)" fill="none"/>
  <path id="Caminho_9" data-name="Caminho 9" d="M197.3,208.44c-.29,0-.45.2-.492.562h1.055C197.8,208.631,197.676,208.44,197.3,208.44Z" transform="translate(-153.621 -162.641)" fill="none"/>
  <path id="Caminho_10" data-name="Caminho 10" d="M181.369,55.786l-2.417,1.571s-1.56-2.006-5.629-1.933c-8.393.145-11.985,9.979-11.838,18.529.141,7.69,3.937,9.595,7.4,9.538a8.165,8.165,0,0,0,6.495-3.88l1.481,3.232,6.87-.125,4.262-27.043ZM175.9,71.3s-1.7,4.915-3.68,4.95c-.813.013-1.041-1.3-1.07-3.034-.042-2.441,1.033-10.654,3.882-10.7a8.481,8.481,0,0,1,2.2.369Z" transform="translate(-126.054 -43.243)" fill="#d51c17"/>
  <path id="Caminho_11" data-name="Caminho 11" d="M476.054,52.1s-1.562-2.01-5.636-1.94c-8.391.147-11.981,9.986-11.834,18.533.136,7.69,3.939,9.6,7.4,9.538a8.174,8.174,0,0,0,6.5-3.88l1.479,3.236,6.868-.123,4.254-27.047-6.611.116Zm-3.063,13.945S471.3,70.966,469.315,71c-.819.015-1.044-1.3-1.072-3.032-.044-2.439,1.03-10.654,3.882-10.7a8.378,8.378,0,0,1,2.2.369Z" transform="translate(-358.001 -39.139)" fill="#d51c17"/>
  <path id="Caminho_12" data-name="Caminho 12" d="M377.748,58.692a16.6,16.6,0,0,1,5.932,1.47l1.1-6.734a17.478,17.478,0,0,0-7.611-1.7c-6.207.11-11.311,2.131-11.186,9.254.059,3.515,2.081,5.409,4.036,6.752l1.237.837c1.237.848,2.314,1.285,2.336,2.417.02,1.422-.94,1.692-2.208,1.718-1.835.033-6.444-1.567-6.444-1.567l-1.1,6.991a26.649,26.649,0,0,0,8.938,1.674c5.95-.114,10.652-1.872,10.518-9.61a8.028,8.028,0,0,0-3.988-6.7l-1.283-.791c-1.294-.8-2.368-1.331-2.388-2.5S376.373,58.714,377.748,58.692Z" transform="translate(-284.013 -40.362)" fill="#d51c17"/>
  <path id="Caminho_13" data-name="Caminho 13" d="M28.389,32.4,19.335,43.2,14.7,32.65l-9.158.042L0,65.773l9.617-.167,1.575-8.881a120.018,120.018,0,0,0,1.191-13.1,55.77,55.77,0,0,0,2.65,8.9l2.23,5.152L21,52.726a82.842,82.842,0,0,0,5.44-9.257A132.948,132.948,0,0,0,23.67,56.652l-1.226,8.723,9.617-.171,4.331-32.8Z" transform="translate(0 -25.28)" fill="#d51c17"/>
  <path id="Caminho_14" data-name="Caminho 14" d="M290.4,65.06l-1.285-.793c-1.283-.789-2.366-1.331-2.386-2.5s.745-1.487,2.114-1.507a16.7,16.7,0,0,1,5.932,1.47l1.1-6.734a17.531,17.531,0,0,0-7.611-1.7c-6.2.11-11.311,2.138-11.184,9.259.062,3.515,2.081,5.409,4.036,6.747l1.237.844c1.237.844,2.311,1.283,2.331,2.4.024,1.426-.94,1.7-2.21,1.72-1.828.031-6.438-1.567-6.438-1.567l-1.1,6.989a26.7,26.7,0,0,0,8.938,1.676c5.952-.1,10.656-1.868,10.513-9.6A8,8,0,0,0,290.4,65.06Z" transform="translate(-214.618 -41.579)" fill="#d51c17"/>
  <path id="Caminho_15" data-name="Caminho 15" d="M608.725-.005c-5.618.1-5.932,4.821-6.115,10.107-.3,8.435-.51,12.3-.78,16.136l4.28.71c2.483-5.886,4.478-10.469,6.591-15.338,1.136-2.6,2.112-4.7,2.074-6.833C614.716,2.132,612.264-.074,608.725-.005Z" transform="translate(-469.777 0.007)" fill="#d51c17"/>
  <path id="Caminho_16" data-name="Caminho 16" d="M586.787,134.7a5.338,5.338,0,0,0-5.46,5.546,4.756,4.756,0,0,0,5.13,4.35,5.377,5.377,0,0,0,5.464-5.55A4.758,4.758,0,0,0,586.787,134.7Z" transform="translate(-453.778 -105.1)" fill="#d51c17"/>
  <path id="Caminho_17" data-name="Caminho 17" d="M171.27,203.848h1.36v-1.929h1.54v-1.156h-1.54v-.681h2.538V198.92h-3.9Z" transform="translate(-133.687 -155.213)"/>
  <path id="Caminho_18" data-name="Caminho 18" d="M193.21,204.19c-.973,0-1.69.659-1.69,1.925a1.7,1.7,0,0,0,1.725,1.925,2.856,2.856,0,0,0,1.505-.424l-.488-.811a1.918,1.918,0,0,1-.958.264.584.584,0,0,1-.624-.593h2.166v-.246C194.855,204.858,194.223,204.19,193.21,204.19Zm-.527,1.5c.042-.365.2-.562.492-.562.374,0,.5.191.562.562Z" transform="translate(-149.493 -159.325)"/>
  <path id="Caminho_19" data-name="Caminho 19" d="M213.3,197.67a.653.653,0,0,0-.725.613.741.741,0,0,0,1.465,0C214.036,197.894,213.73,197.67,213.3,197.67Z" transform="translate(-165.923 -154.237)"/>
  <rect id="Ret창ngulo_1" data-name="Ret창ngulo 1" width="1.268" height="3.696" transform="translate(46.737 44.94)"/>
  <path id="Caminho_20" data-name="Caminho 20" d="M226.625,201.766v-1.349h.8v-.991h-.8V198l-1.23.5v.936h-.565v.98h.565v1.606c0,.837.31,1.178.978,1.178a2.065,2.065,0,0,0,.914-.2l.163-1.074a.879.879,0,0,1-.505.2C226.735,202.131,226.625,202.047,226.625,201.766Z" transform="translate(-175.493 -154.495)"/>
  <path id="Caminho_21" data-name="Caminho 21" d="M243.758,204.18a1.934,1.934,0,1,0,1.758,1.92A1.693,1.693,0,0,0,243.758,204.18Zm0,2.817c-.332,0-.5-.288-.5-.9s.167-.892.5-.892.5.266.5.892S244.081,207,243.758,207Z" transform="translate(-188.896 -159.317)"/>
  <path id="Caminho_22" data-name="Caminho 22" d="M279.358,199.681a1.3,1.3,0,0,0-.824-.325c-.8,0-1.274.613-1.274,1.936,0,1.371.536,1.918,1.224,1.918a1.3,1.3,0,0,0,.879-.341v.261h1.274V198l-1.274.508Zm0,2.309a.659.659,0,0,1-.439.176c-.268,0-.409-.176-.409-.914,0-.692.141-.853.4-.853a.659.659,0,0,1,.453.176Z" transform="translate(-216.418 -154.495)"/>
  <path id="Caminho_23" data-name="Caminho 23" d="M300.468,204.18a1.934,1.934,0,1,0,1.758,1.92A1.693,1.693,0,0,0,300.468,204.18Zm0,2.821c-.332,0-.5-.288-.5-.9s.169-.892.5-.892.5.266.5.892-.167.9-.5.9Z" transform="translate(-233.161 -159.317)"/>
  <path id="Caminho_24" data-name="Caminho 24" d="M335.812,205.531c-.323-.1-.365-.138-.365-.253s.064-.163.31-.163a2.992,2.992,0,0,1,1.173.31l.281-.98a3.8,3.8,0,0,0-1.419-.266c-1.008,0-1.507.439-1.507,1.213s.4,1,1.538,1.3c.242.064.3.112.3.22s-.092.169-.341.169a3.581,3.581,0,0,1-1.272-.323l-.3.958a4.336,4.336,0,0,0,1.538.3c.945,0,1.527-.4,1.527-1.248C337.277,206.052,336.853,205.8,335.812,205.531Z" transform="translate(-260.871 -159.317)"/>
  <path id="Caminho_25" data-name="Caminho 25" d="M355.277,204.19c-.969,0-1.687.659-1.687,1.925a1.7,1.7,0,0,0,1.725,1.925,2.856,2.856,0,0,0,1.505-.424l-.486-.811a1.927,1.927,0,0,1-.956.264.587.587,0,0,1-.628-.593h2.169v-.246C356.925,204.858,356.293,204.19,355.277,204.19Zm-.527,1.5c.044-.365.2-.562.492-.562.376,0,.5.191.563.562Z" transform="translate(-275.998 -159.325)"/>
  <path id="Caminho_26" data-name="Caminho 26" d="M376.888,206.641c0,.464-.163.591-.424.591s-.422-.127-.422-.6v-2.1H374.77v2.259c0,.969.385,1.516,1.2,1.516a1.389,1.389,0,0,0,.921-.327v.248h1.272v-3.7h-1.272Z" transform="translate(-292.531 -159.59)"/>
  <path id="Caminho_27" data-name="Caminho 27" d="M411.253,197.68a.651.651,0,0,0-.723.611.74.74,0,0,0,1.463,0C411.993,197.9,411.69,197.68,411.253,197.68Z" transform="translate(-320.442 -154.245)"/>
  <path id="Caminho_28" data-name="Caminho 28" d="M408.037,207.944c0,.5-.189.681-.817.767l.426.879c1.167-.138,1.659-.554,1.659-1.709V204.53h-1.268Z" transform="translate(-317.859 -159.59)"/>
  <path id="Caminho_29" data-name="Caminho 29" d="M424.672,204.19c-.973,0-1.692.659-1.692,1.925a1.7,1.7,0,0,0,1.725,1.925,2.87,2.87,0,0,0,1.507-.424l-.486-.811a1.929,1.929,0,0,1-.958.264.584.584,0,0,1-.626-.593h2.169v-.246C426.317,204.858,425.685,204.19,424.672,204.19Zm-.53,1.5c.042-.365.207-.562.492-.562.374,0,.5.191.565.562Z" transform="translate(-330.161 -159.325)"/>
  <path id="Caminho_30" data-name="Caminho 30" d="M444.763,197.67a.651.651,0,0,0-.723.613.74.74,0,0,0,1.463,0C445.5,197.894,445.2,197.67,444.763,197.67Z" transform="translate(-346.598 -154.237)"/>
  <rect id="Ret창ngulo_2" data-name="Ret창ngulo 2" width="1.268" height="3.696" transform="translate(97.534 44.94)"/>
  <path id="Caminho_31" data-name="Caminho 31" d="M458.105,201.766v-1.349h.8v-.991h-.8V198l-1.233.5v.936h-.562v.98h.563v1.606c0,.837.312,1.178.98,1.178a2.072,2.072,0,0,0,.914-.2l.16-1.074a.861.861,0,0,1-.505.2C458.219,202.131,458.105,202.047,458.105,201.766Z" transform="translate(-356.177 -154.495)"/>
  <path id="Caminho_32" data-name="Caminho 32" d="M475.188,204.18a1.934,1.934,0,1,0,1.758,1.92A1.693,1.693,0,0,0,475.188,204.18Zm0,2.821c-.332,0-.5-.288-.5-.9s.167-.892.5-.892.5.266.5.892-.167.9-.5.9Z" transform="translate(-369.541 -159.317)"/>
</svg>
