<svg id="logo_mw" data-name="logo mw" xmlns="http://www.w3.org/2000/svg" width="40.003" height="30" viewBox="0 0 40.003 30">
  <g id="_6" data-name="6">
    <path id="Caminho_131" data-name="Caminho 131" d="M.66,30.909a1.842,1.842,0,0,0,.261.161c.507.2,14.186,4.652,16.6,5.435V30.687s-.069-.046-.1-.061L9.572,28l-1.612.53Z" transform="translate(-0.153 -6.506)" fill="#a0a0a0"/>
    <path id="Caminho_132" data-name="Caminho 132" d="M.031,7.518H.008L0,7.51H0l.031.015Z" transform="translate(0 -1.745)" fill="#a0a0a0"/>
    <path id="Caminho_133" data-name="Caminho 133" d="M9.568,8.483l7.853-2.6a.338.338,0,0,0,.107-.1V0C15.133.768,1.431,5.243.916,5.435a1.842,1.842,0,0,0-.276.138Z" transform="translate(-0.149)" fill="#a0a0a0"/>
    <path id="Caminho_134" data-name="Caminho 134" d="M.16,7.44Z" transform="translate(-0.037 -1.729)" fill="#a0a0a0"/>
    <path id="Caminho_135" data-name="Caminho 135" d="M.031,7.525V7.518L0,7.51H0Z" transform="translate(0 -1.745)" fill="#a0a0a0"/>
    <path id="Caminho_136" data-name="Caminho 136" d="M.178,13.606h0s.054.038.092.061l.184.054c2.065.668,5.374,1.766,8.621,2.848,3.4-1.144,6.786-2.3,8.191-3.009a1,1,0,0,0-.5-.33c-.207-.084-2.679-.9-7.346-2.426L.208,7.81a1.627,1.627,0,0,0-.038.361v5.435Z" transform="translate(-0.039 -1.815)" fill="#a0a0a0"/>
    <path id="Caminho_137" data-name="Caminho 137" d="M17.422,15.93C14.136,17.465,1.462,21.465.3,21.818l-.123.115v5.635h0v.138l7.538-2.457c5.6-1.835,8.828-2.894,9.058-2.986a.821.821,0,0,0,.637-.952V16.022Z" transform="translate(-0.042 -3.701)" fill="#a0a0a0"/>
    <path id="Caminho_138" data-name="Caminho 138" d="M46.341,30.909a1.842,1.842,0,0,1-.276.138c-.507.2-14.186,4.652-16.6,5.435V30.664s.069-.046.1-.061L37.421,28l1.612.53Z" transform="translate(-6.845 -6.506)" fill="#a0a0a0"/>
    <path id="Caminho_139" data-name="Caminho 139" d="M52.07,7.518h.015L52.1,7.51h-.008l-.023.015Z" transform="translate(-12.098 -1.745)" fill="#a0a0a0"/>
    <path id="Caminho_140" data-name="Caminho 140" d="M37.423,8.483c-2.3-.768-7.615-2.518-7.845-2.6a.338.338,0,0,1-.107-.1c0-1.65,0-3.332,0-5.067V0c2.4.768,16.121,5.243,16.6,5.435a1.843,1.843,0,0,1,.276.138Z" transform="translate(-6.847)" fill="#a0a0a0"/>
    <path id="Caminho_141" data-name="Caminho 141" d="M51.95,7.44Z" transform="translate(-12.07 -1.729)" fill="#a0a0a0"/>
    <path id="Caminho_142" data-name="Caminho 142" d="M52.07,7.525V7.518L52.1,7.51h0Z" transform="translate(-12.098 -1.745)" fill="#a0a0a0"/>
    <path id="Caminho_143" data-name="Caminho 143" d="M46.746,13.606h0s-.054.038-.092.061l-.192.054c-2.057.668-5.374,1.766-8.613,2.848-3.4-1.144-6.794-2.3-8.2-3.009a1.059,1.059,0,0,1,.507-.33c.207-.084,2.671-.9,7.346-2.426L46.715,7.81a1.589,1.589,0,0,1,.046.361v4.291C46.753,12.846,46.753,13.23,46.746,13.606Z" transform="translate(-6.889 -1.815)" fill="#a0a0a0"/>
    <path id="Caminho_144" data-name="Caminho 144" d="M29.47,15.93c3.278,1.535,15.96,5.535,17.119,5.888l.115.115v5.619h0v.138l-7.462-2.433c-5.619-1.835-8.843-2.894-9.074-2.986a.821.821,0,0,1-.645-.952V16.03a.315.315,0,0,1-.054-.1Z" transform="translate(-6.847 -3.701)" fill="#a0a0a0"/>
  </g>
</svg>
