<svg xmlns="http://www.w3.org/2000/svg" width="145" height="50"><path data-name="Caminho 1" d="M67.306 45.891c-.332 0-.5.266-.5.892s.169.9.5.9.5-.288.5-.9-.168-.892-.5-.892Z" fill="none"/><path data-name="Caminho 2" d="M62.087 46.757c0 .738.141.914.409.914a.659.659 0 0 0 .439-.176v-1.41a.659.659 0 0 0-.453-.176c-.254-.004-.395.156-.395.848Z" fill="none"/><path data-name="Caminho 3" d="M54.862 45.891c-.332 0-.5.266-.5.892s.167.9.5.9.5-.288.5-.9-.177-.892-.5-.892Z" fill="none"/><path data-name="Caminho 4" d="M45.098 29.978c.029 1.731.257 3.047 1.07 3.034 1.977-.035 3.68-4.95 3.68-4.95l1.318-8.42a8.482 8.482 0 0 0-2.2-.369c-2.839.051-3.914 8.263-3.868 10.705Z" fill="none"/><path data-name="Caminho 5" d="M79.244 45.799c-.288 0-.439.2-.492.562h1.055c-.062-.371-.187-.562-.563-.562Z" fill="none"/><path data-name="Caminho 6" d="M94.473 45.799c-.286 0-.45.2-.492.562h1.057c-.064-.371-.191-.562-.565-.562Z" fill="none"/><path data-name="Caminho 7" d="M110.278 28.824c.029 1.731.253 3.047 1.072 3.032 1.977-.031 3.676-4.948 3.676-4.948l1.318-8.419a8.377 8.377 0 0 0-2.2-.369c-2.835.05-3.909 8.265-3.866 10.704Z" fill="none"/><path data-name="Caminho 8" d="M105.648 45.891c-.332 0-.5.266-.5.892s.167.9.5.9.5-.288.5-.9-.168-.892-.5-.892Z" fill="none"/><path data-name="Caminho 9" d="M43.679 45.799c-.29 0-.45.2-.492.562h1.055c-.063-.371-.187-.562-.563-.562Z" fill="none"/><path data-name="Caminho 10" d="m55.315 12.543-2.417 1.571s-1.56-2.006-5.629-1.933c-8.393.145-11.985 9.979-11.838 18.529.141 7.69 3.937 9.595 7.4 9.538a8.165 8.165 0 0 0 6.495-3.88l1.481 3.232 6.87-.125 4.262-27.043Zm-5.469 15.514s-1.7 4.915-3.68 4.95c-.813.013-1.041-1.3-1.07-3.034-.042-2.441 1.033-10.654 3.882-10.7a8.481 8.481 0 0 1 2.2.369Z" fill="#d51c17"/><path data-name="Caminho 11" d="M118.053 12.961s-1.562-2.01-5.636-1.94c-8.391.147-11.981 9.986-11.834 18.533.136 7.69 3.939 9.6 7.4 9.538a8.174 8.174 0 0 0 6.5-3.88l1.479 3.236 6.868-.123 4.254-27.047-6.611.116Zm-3.063 13.945s-1.691 4.921-3.676 4.955c-.819.015-1.044-1.3-1.072-3.032-.044-2.439 1.03-10.654 3.882-10.7a8.378 8.378 0 0 1 2.2.369Z" fill="#d51c17"/><path data-name="Caminho 12" d="M93.735 18.33a16.6 16.6 0 0 1 5.932 1.47l1.1-6.734a17.478 17.478 0 0 0-7.611-1.7c-6.207.11-11.311 2.131-11.186 9.254.059 3.515 2.081 5.409 4.036 6.752l1.237.837c1.237.848 2.314 1.285 2.336 2.417.02 1.422-.94 1.692-2.208 1.718-1.835.033-6.444-1.567-6.444-1.567l-1.1 6.991a26.649 26.649 0 0 0 8.938 1.674c5.95-.114 10.652-1.872 10.518-9.61a8.028 8.028 0 0 0-3.988-6.7l-1.283-.791c-1.294-.8-2.368-1.331-2.388-2.5s.736-1.489 2.111-1.511Z" fill="#d51c17"/><path data-name="Caminho 13" d="m28.389 7.12-9.054 10.8L14.7 7.37l-9.158.042L0 40.493l9.617-.167 1.575-8.881a120.018 120.018 0 0 0 1.191-13.1 55.77 55.77 0 0 0 2.65 8.9l2.23 5.152L21 27.446a82.842 82.842 0 0 0 5.44-9.257 132.948 132.948 0 0 0-2.77 13.183l-1.226 8.723 9.617-.171 4.331-32.8Z" fill="#d51c17"/><path data-name="Caminho 14" d="m75.782 23.481-1.285-.793c-1.283-.789-2.366-1.331-2.386-2.5s.745-1.487 2.114-1.507a16.7 16.7 0 0 1 5.932 1.47l1.1-6.734a17.531 17.531 0 0 0-7.611-1.7c-6.2.11-11.311 2.138-11.184 9.259.062 3.515 2.081 5.409 4.036 6.747l1.237.844c1.237.844 2.311 1.283 2.331 2.4.024 1.426-.94 1.7-2.21 1.72-1.828.031-6.438-1.567-6.438-1.567l-1.1 6.989a26.7 26.7 0 0 0 8.938 1.676c5.952-.1 10.656-1.868 10.513-9.6a8 8 0 0 0-3.987-6.704Z" fill="#d51c17"/><path data-name="Caminho 15" d="M138.948.002c-5.618.1-5.932 4.821-6.115 10.107-.3 8.435-.51 12.3-.78 16.136l4.28.71c2.483-5.886 4.478-10.469 6.591-15.338 1.136-2.6 2.112-4.7 2.074-6.833-.059-2.645-2.511-4.851-6.05-4.782Z" fill="#d51c17"/><path data-name="Caminho 16" d="M133.009 29.6a5.338 5.338 0 0 0-5.46 5.546 4.756 4.756 0 0 0 5.13 4.35 5.377 5.377 0 0 0 5.464-5.55 4.758 4.758 0 0 0-5.134-4.346Z" fill="#d51c17"/><path data-name="Caminho 17" d="M37.583 48.635h1.36v-1.929h1.54V45.55h-1.54v-.681h2.538v-1.162h-3.9Z"/><path data-name="Caminho 18" d="M43.717 44.865c-.973 0-1.69.659-1.69 1.925a1.7 1.7 0 0 0 1.725 1.925 2.856 2.856 0 0 0 1.505-.424l-.488-.811a1.918 1.918 0 0 1-.958.264.584.584 0 0 1-.624-.593h2.166v-.246c.009-1.372-.623-2.04-1.636-2.04Zm-.527 1.5c.042-.365.2-.562.492-.562.374 0 .5.191.562.562Z"/><path data-name="Caminho 19" d="M47.377 43.433a.653.653 0 0 0-.725.613.741.741 0 0 0 1.465 0c-.004-.389-.31-.613-.74-.613Z"/><path data-name="Retângulo 1" d="M46.737 44.94h1.268v3.696h-1.268z"/><path data-name="Caminho 20" d="M51.132 47.271v-1.349h.8v-.991h-.8v-1.426l-1.23.5v.936h-.565v.98h.565v1.606c0 .837.31 1.178.978 1.178a2.065 2.065 0 0 0 .914-.2l.163-1.074a.879.879 0 0 1-.505.2c-.21.005-.32-.079-.32-.36Z"/><path data-name="Caminho 21" d="M54.862 44.863a1.934 1.934 0 1 0 1.758 1.92 1.693 1.693 0 0 0-1.758-1.92Zm0 2.817c-.332 0-.5-.288-.5-.9s.167-.892.5-.892.5.266.5.892-.177.903-.5.903Z"/><path data-name="Caminho 22" d="M62.94 45.186a1.3 1.3 0 0 0-.824-.325c-.8 0-1.274.613-1.274 1.936 0 1.371.536 1.918 1.224 1.918a1.3 1.3 0 0 0 .879-.341v.261h1.274v-5.13l-1.274.508Zm0 2.309a.659.659 0 0 1-.439.176c-.268 0-.409-.176-.409-.914 0-.692.141-.853.4-.853a.659.659 0 0 1 .453.176Z"/><path data-name="Caminho 23" d="M67.307 44.863a1.934 1.934 0 1 0 1.758 1.92 1.693 1.693 0 0 0-1.758-1.92Zm0 2.821c-.332 0-.5-.288-.5-.9s.169-.892.5-.892.5.266.5.892-.167.9-.5.9Z"/><path data-name="Caminho 24" d="M74.941 46.214c-.323-.1-.365-.138-.365-.253s.064-.163.31-.163a2.992 2.992 0 0 1 1.173.31l.281-.98a3.8 3.8 0 0 0-1.419-.266c-1.008 0-1.507.439-1.507 1.213s.4 1 1.538 1.3c.242.064.3.112.3.22s-.092.169-.341.169a3.581 3.581 0 0 1-1.272-.323l-.3.958a4.336 4.336 0 0 0 1.538.3c.945 0 1.527-.4 1.527-1.248.002-.716-.422-.968-1.463-1.237Z"/><path data-name="Caminho 25" d="M79.279 44.865c-.969 0-1.687.659-1.687 1.925a1.7 1.7 0 0 0 1.725 1.925 2.856 2.856 0 0 0 1.505-.424l-.486-.811a1.927 1.927 0 0 1-.956.264.587.587 0 0 1-.628-.593h2.169v-.246c.006-1.372-.626-2.04-1.642-2.04Zm-.527 1.5c.044-.365.2-.562.492-.562.376 0 .5.191.563.562Z"/><path data-name="Caminho 26" d="M84.357 47.051c0 .464-.163.591-.424.591s-.422-.127-.422-.6v-2.1h-1.272v2.259c0 .969.385 1.516 1.2 1.516a1.389 1.389 0 0 0 .921-.327v.248h1.272v-3.7H84.36Z"/><path data-name="Caminho 27" d="M90.811 43.435a.651.651 0 0 0-.723.611.74.74 0 0 0 1.463 0c0-.391-.303-.611-.74-.611Z"/><path data-name="Caminho 28" d="M90.178 48.354c0 .5-.189.681-.817.767l.426.879c1.167-.138 1.659-.554 1.659-1.709V44.94h-1.268Z"/><path data-name="Caminho 29" d="M94.511 44.865c-.973 0-1.692.659-1.692 1.925a1.7 1.7 0 0 0 1.725 1.925 2.87 2.87 0 0 0 1.507-.424l-.486-.811a1.929 1.929 0 0 1-.958.264.584.584 0 0 1-.626-.593h2.169v-.246c.006-1.372-.626-2.04-1.639-2.04Zm-.53 1.5c.042-.365.207-.562.492-.562.374 0 .5.191.565.562Z"/><path data-name="Caminho 30" d="M98.165 43.433a.651.651 0 0 0-.723.613.74.74 0 0 0 1.463 0c-.003-.389-.303-.613-.74-.613Z"/><path data-name="Retângulo 2" d="M97.534 44.94h1.268v3.696h-1.268z"/><path data-name="Caminho 31" d="M101.928 47.271v-1.349h.8v-.991h-.8v-1.426l-1.233.5v.936h-.562v.98h.563v1.606c0 .837.312 1.178.98 1.178a2.072 2.072 0 0 0 .914-.2l.16-1.074a.861.861 0 0 1-.505.2c-.203.005-.317-.079-.317-.36Z"/><path data-name="Caminho 32" d="M105.647 44.863a1.934 1.934 0 1 0 1.758 1.92 1.693 1.693 0 0 0-1.758-1.92Zm0 2.821c-.332 0-.5-.288-.5-.9s.167-.892.5-.892.5.266.5.892-.167.9-.5.9Z"/></svg>