<svg xmlns="http://www.w3.org/2000/svg" width="18" height="15"><path d="M16.15 3.738c.011.164.011.328.011.492 0 5-3.712 10.77-10.5 10.77A10.234 10.234 0 0 1 0 13.301a7.44 7.44 0 0 0 .891.047 7.27 7.27 0 0 0 4.58-1.617 3.709 3.709 0 0 1-3.449-2.625 4.537 4.537 0 0 0 .7.059 3.808 3.808 0 0 0 .971-.129A3.763 3.763 0 0 1 .731 5.319v-.046a3.644 3.644 0 0 0 1.668.48A3.856 3.856 0 0 1 1.256.691a10.4 10.4 0 0 0 7.607 3.961 4.38 4.38 0 0 1-.091-.867A3.736 3.736 0 0 1 12.461 0a3.637 3.637 0 0 1 2.7 1.2A7.152 7.152 0 0 0 17.5.281a3.759 3.759 0 0 1-1.622 2.086A7.248 7.248 0 0 0 18 1.781a8.046 8.046 0 0 1-1.85 1.957Z" fill="#d51c17"/></svg>